<svg width="25" height="23" fill="none" xmlns="http://www.w3.org/2000/svg"><path d="M3.547.203a2.586 2.586 0 0 0-1.993.664A2.642 2.642 0 0 0 .687 2.8a2.669 2.669 0 0 0 .818 1.954 2.609 2.609 0 0 0 1.975.717h.032a2.587 2.587 0 0 0 1.998-.672 2.643 2.643 0 0 0 .86-1.943A2.67 2.67 0 0 0 5.537.9 2.61 2.61 0 0 0 3.547.203zM1.007 7.556H6.02V22.81H1.007V7.556zM18.326 7.199c-2.704 0-4.518 2.57-4.518 2.57V7.557H8.795V22.81h5.013v-8.518c-.019-.42.037-.838.165-1.237.188-.54.536-1.007.996-1.339a2.723 2.723 0 0 1 1.575-.515c1.815 0 2.54 1.4 2.54 3.449v8.16h5.012v-8.746c.002-4.685-2.472-6.865-5.77-6.865z" fill="#454545"/></svg>