<svg width="18" height="23" fill="none" xmlns="http://www.w3.org/2000/svg"><path d="M15.666 2.485A8.549 8.549 0 0 0 9.649.16a9.363 9.363 0 0 0-3.766.634 9.447 9.447 0 0 0-3.21 2.086A8.082 8.082 0 0 0 .32 8.451c0 2.525 1.044 4.464 2.793 5.185.111.048.23.072.351.073a.777.777 0 0 0 .493-.18.793.793 0 0 0 .27-.456c.06-.225.198-.779.255-1.02a.967.967 0 0 0-.253-1.035 3.324 3.324 0 0 1-.738-2.252 5.726 5.726 0 0 1 .435-2.23A5.674 5.674 0 0 1 5.193 4.66a5.6 5.6 0 0 1 1.894-1.224 5.551 5.551 0 0 1 2.216-.375c2.997 0 4.858 1.722 4.858 4.494a9.424 9.424 0 0 1-1.05 4.562 3.13 3.13 0 0 1-1.041 1.261c-.452.32-.98.51-1.53.555a1.686 1.686 0 0 1-1.353-.626 1.583 1.583 0 0 1-.273-1.367c.133-.572.315-1.168.494-1.745.334-.914.545-1.87.625-2.84a2.087 2.087 0 0 0-.524-1.6 2.04 2.04 0 0 0-1.529-.67c-1.56 0-2.782 1.6-2.782 3.65a5.48 5.48 0 0 0 .382 2.041c-.197.842-1.364 5.85-1.582 6.795-.128.551-.9 4.905.378 5.252 1.436.39 2.718-3.85 2.85-4.33.106-.39.477-1.863.703-2.769a4.313 4.313 0 0 0 2.894 1.131c1.007.002 2-.234 2.9-.69a6.474 6.474 0 0 0 2.284-1.933 10.611 10.611 0 0 0 1.949-6.437 7.493 7.493 0 0 0-.612-2.89 7.424 7.424 0 0 0-1.678-2.419z" fill="#454545"/></svg>