<svg width="25" height="19" fill="none" xmlns="http://www.w3.org/2000/svg"><path d="M23.854 2.213c-.89-1.073-2.54-1.51-5.686-1.51H6.746c-3.219 0-4.894.466-5.783 1.608C.096 3.424.096 5.065.096 7.336v4.328c0 4.4 1.029 6.633 6.65 6.633h11.421c2.729 0 4.24-.386 5.22-1.333 1.002-.97 1.43-2.556 1.43-5.3V7.336c0-2.395-.067-4.05-.963-5.123zm-7.887 7.885-5.186 2.741a.79.79 0 0 1-1.065-.319.813.813 0 0 1-.102-.396V6.66a.813.813 0 0 1 .383-.69.79.79 0 0 1 .782-.026l5.186 2.724a.8.8 0 0 1 .43.715.813.813 0 0 1-.43.715l.002.001z" fill="#454545"/></svg>